<?xml version="1.0" encoding="UTF-8" standalone="no"?>
<!DOCTYPE svg PUBLIC "-//W3C//DTD SVG 1.1//EN"
 "http://www.w3.org/Graphics/SVG/1.1/DTD/svg11.dtd">
<!-- Generated by graphviz version 11.0.0 (20240519.1550)
 -->
<!-- Pages: 1 -->
<svg width="1132pt" height="706pt"
 viewBox="0.00 0.00 1132.40 705.52" xmlns="http://www.w3.org/2000/svg" xmlns:xlink="http://www.w3.org/1999/xlink">
<g id="graph0" class="graph" transform="scale(1 1) rotate(0) translate(4 701.52)">
<polygon fill="white" stroke="none" points="-4,4 -4,-701.52 1128.4,-701.52 1128.4,4 -4,4"/>
<g id="clust1" class="cluster">
<title>clustercoeff (3)</title>
<path fill="none" stroke="black" d="M20,-187C20,-187 310,-187 310,-187 316,-187 322,-193 322,-199 322,-199 322,-346.01 322,-346.01 322,-352.01 316,-358.01 310,-358.01 310,-358.01 20,-358.01 20,-358.01 14,-358.01 8,-352.01 8,-346.01 8,-346.01 8,-199 8,-199 8,-193 14,-187 20,-187"/>
<text text-anchor="middle" x="285.12" y="-194.95" font-family="Times,serif" font-size="14.00">coeff (3)</text>
</g>
<g id="clust2" class="cluster">
<title>clustercloud (3)</title>
<path fill="none" stroke="black" d="M342,-206.01C342,-206.01 852,-206.01 852,-206.01 858,-206.01 864,-212.01 864,-218.01 864,-218.01 864,-677.52 864,-677.52 864,-683.52 858,-689.52 852,-689.52 852,-689.52 342,-689.52 342,-689.52 336,-689.52 330,-683.52 330,-677.52 330,-677.52 330,-218.01 330,-218.01 330,-212.01 336,-206.01 342,-206.01"/>
<text text-anchor="middle" x="824.88" y="-213.96" font-family="Times,serif" font-size="14.00">cloud (3)</text>
</g>
<g id="clust3" class="cluster">
<title>cluster501</title>
<path fill="none" stroke="black" d="M564,-8C564,-8 698,-8 698,-8 704,-8 710,-14 710,-20 710,-20 710,-167 710,-167 710,-173 704,-179 698,-179 698,-179 564,-179 564,-179 558,-179 552,-173 552,-167 552,-167 552,-20 552,-20 552,-14 558,-8 564,-8"/>
<text text-anchor="middle" x="688.5" y="-15.95" font-family="Times,serif" font-size="14.00">501</text>
</g>
<!-- observation_baseline_norm -->
<g id="node1" class="node">
<title>observation_baseline_norm</title>
<ellipse fill="none" stroke="black" cx="165" cy="-285.13" rx="148.67" ry="64.88"/>
<text text-anchor="middle" x="165" y="-313.71" font-family="Times,serif" font-size="14.00">observation_baseline_norm</text>
<text text-anchor="middle" x="165" y="-280.46" font-family="Times,serif" font-size="14.00">~</text>
<text text-anchor="middle" x="165" y="-247.21" font-family="Times,serif" font-size="14.00">Normal</text>
</g>
<!-- observation -->
<g id="node9" class="node">
<title>observation</title>
<ellipse fill="lightgrey" stroke="black" cx="631" cy="-106.13" rx="70.71" ry="64.88"/>
<text text-anchor="middle" x="631" y="-134.7" font-family="Times,serif" font-size="14.00">observation</text>
<text text-anchor="middle" x="631" y="-101.45" font-family="Times,serif" font-size="14.00">~</text>
<text text-anchor="middle" x="631" y="-68.2" font-family="Times,serif" font-size="14.00">Normal</text>
</g>
<!-- observation_baseline_norm&#45;&gt;observation -->
<g id="edge1" class="edge">
<title>observation_baseline_norm&#45;&gt;observation</title>
<path fill="none" stroke="black" d="M241.05,-229C359.46,-229 574.44,-229 574.44,-229 574.44,-229 574.44,-157.19 574.44,-157.19"/>
<polygon fill="black" stroke="black" points="577.94,-157.19 574.44,-147.19 570.94,-157.19 577.94,-157.19"/>
</g>
<!-- fwhm -->
<g id="node2" class="node">
<title>fwhm</title>
<polygon fill="none" stroke="black" points="659.75,-496.76 546.25,-496.76 546.25,-405.01 659.75,-405.01 659.75,-496.76"/>
<text text-anchor="middle" x="603" y="-479.46" font-family="Times,serif" font-size="14.00">fwhm</text>
<text text-anchor="middle" x="603" y="-446.21" font-family="Times,serif" font-size="14.00">~</text>
<text text-anchor="middle" x="603" y="-412.96" font-family="Times,serif" font-size="14.00">Deterministic</text>
</g>
<!-- amplitude -->
<g id="node6" class="node">
<title>amplitude</title>
<polygon fill="none" stroke="black" points="602.75,-331.01 489.25,-331.01 489.25,-239.26 602.75,-239.26 602.75,-331.01"/>
<text text-anchor="middle" x="546" y="-313.71" font-family="Times,serif" font-size="14.00">amplitude</text>
<text text-anchor="middle" x="546" y="-280.46" font-family="Times,serif" font-size="14.00">~</text>
<text text-anchor="middle" x="546" y="-247.21" font-family="Times,serif" font-size="14.00">Deterministic</text>
</g>
<!-- fwhm&#45;&gt;amplitude -->
<g id="edge2" class="edge">
<title>fwhm&#45;&gt;amplitude</title>
<path fill="none" stroke="black" d="M574.5,-404.71C574.5,-404.71 574.5,-342.86 574.5,-342.86"/>
<polygon fill="black" stroke="black" points="578,-342.86 574.5,-332.86 571,-342.86 578,-342.86"/>
</g>
<!-- fwhm&#45;&gt;observation -->
<g id="edge3" class="edge">
<title>fwhm&#45;&gt;observation</title>
<path fill="none" stroke="black" d="M631.25,-404.75C631.25,-404.75 631.25,-182.93 631.25,-182.93"/>
<polygon fill="black" stroke="black" points="634.75,-182.93 631.25,-172.93 627.75,-182.93 634.75,-182.93"/>
</g>
<!-- line_area -->
<g id="node3" class="node">
<title>line_area</title>
<polygon fill="none" stroke="black" points="504.75,-496.76 391.25,-496.76 391.25,-405.01 504.75,-405.01 504.75,-496.76"/>
<text text-anchor="middle" x="448" y="-479.46" font-family="Times,serif" font-size="14.00">line_area</text>
<text text-anchor="middle" x="448" y="-446.21" font-family="Times,serif" font-size="14.00">~</text>
<text text-anchor="middle" x="448" y="-412.96" font-family="Times,serif" font-size="14.00">Deterministic</text>
</g>
<!-- line_area&#45;&gt;amplitude -->
<g id="edge4" class="edge">
<title>line_area&#45;&gt;amplitude</title>
<path fill="none" stroke="black" d="M497,-404.71C497,-404.71 497,-342.86 497,-342.86"/>
<polygon fill="black" stroke="black" points="500.5,-342.86 497,-332.86 493.5,-342.86 500.5,-342.86"/>
</g>
<!-- velocity -->
<g id="node4" class="node">
<title>velocity</title>
<polygon fill="none" stroke="black" points="810.75,-496.76 697.25,-496.76 697.25,-405.01 810.75,-405.01 810.75,-496.76"/>
<text text-anchor="middle" x="754" y="-479.46" font-family="Times,serif" font-size="14.00">velocity</text>
<text text-anchor="middle" x="754" y="-446.21" font-family="Times,serif" font-size="14.00">~</text>
<text text-anchor="middle" x="754" y="-412.96" font-family="Times,serif" font-size="14.00">Deterministic</text>
</g>
<!-- velocity&#45;&gt;observation -->
<g id="edge5" class="edge">
<title>velocity&#45;&gt;observation</title>
<path fill="none" stroke="black" d="M697.05,-450C687.1,-450 679.86,-450 679.86,-450 679.86,-450 679.86,-165.09 679.86,-165.09"/>
<polygon fill="black" stroke="black" points="683.36,-165.09 679.86,-155.09 676.36,-165.09 683.36,-165.09"/>
</g>
<!-- fwhm_norm -->
<g id="node5" class="node">
<title>fwhm_norm</title>
<ellipse fill="none" stroke="black" cx="603" cy="-616.64" rx="70.71" ry="64.88"/>
<text text-anchor="middle" x="603" y="-645.21" font-family="Times,serif" font-size="14.00">fwhm_norm</text>
<text text-anchor="middle" x="603" y="-611.96" font-family="Times,serif" font-size="14.00">~</text>
<text text-anchor="middle" x="603" y="-578.71" font-family="Times,serif" font-size="14.00">Gamma</text>
</g>
<!-- fwhm_norm&#45;&gt;fwhm -->
<g id="edge6" class="edge">
<title>fwhm_norm&#45;&gt;fwhm</title>
<path fill="none" stroke="black" d="M603,-551.6C603,-551.6 603,-508.56 603,-508.56"/>
<polygon fill="black" stroke="black" points="606.5,-508.56 603,-498.56 599.5,-508.56 606.5,-508.56"/>
</g>
<!-- amplitude&#45;&gt;observation -->
<g id="edge7" class="edge">
<title>amplitude&#45;&gt;observation</title>
<path fill="none" stroke="black" d="M588.6,-239.03C588.6,-239.03 588.6,-169.91 588.6,-169.91"/>
<polygon fill="black" stroke="black" points="592.1,-169.91 588.6,-159.91 585.1,-169.91 592.1,-169.91"/>
</g>
<!-- line_area_norm -->
<g id="node7" class="node">
<title>line_area_norm</title>
<ellipse fill="none" stroke="black" cx="426" cy="-616.64" rx="88.21" ry="64.88"/>
<text text-anchor="middle" x="426" y="-645.21" font-family="Times,serif" font-size="14.00">line_area_norm</text>
<text text-anchor="middle" x="426" y="-611.96" font-family="Times,serif" font-size="14.00">~</text>
<text text-anchor="middle" x="426" y="-578.71" font-family="Times,serif" font-size="14.00">Gamma</text>
</g>
<!-- line_area_norm&#45;&gt;line_area -->
<g id="edge8" class="edge">
<title>line_area_norm&#45;&gt;line_area</title>
<path fill="none" stroke="black" d="M448,-553.5C448,-553.5 448,-508.61 448,-508.61"/>
<polygon fill="black" stroke="black" points="451.5,-508.61 448,-498.61 444.5,-508.61 451.5,-508.61"/>
</g>
<!-- velocity_norm -->
<g id="node8" class="node">
<title>velocity_norm</title>
<ellipse fill="none" stroke="black" cx="774" cy="-616.64" rx="81.85" ry="64.88"/>
<text text-anchor="middle" x="774" y="-645.21" font-family="Times,serif" font-size="14.00">velocity_norm</text>
<text text-anchor="middle" x="774" y="-611.96" font-family="Times,serif" font-size="14.00">~</text>
<text text-anchor="middle" x="774" y="-578.71" font-family="Times,serif" font-size="14.00">Normal</text>
</g>
<!-- velocity_norm&#45;&gt;velocity -->
<g id="edge9" class="edge">
<title>velocity_norm&#45;&gt;velocity</title>
<path fill="none" stroke="black" d="M754,-553.5C754,-553.5 754,-508.61 754,-508.61"/>
<polygon fill="black" stroke="black" points="757.5,-508.61 754,-498.61 750.5,-508.61 757.5,-508.61"/>
</g>
<!-- rms_observation_norm -->
<g id="node10" class="node">
<title>rms_observation_norm</title>
<ellipse fill="none" stroke="black" cx="998" cy="-450.89" rx="126.4" ry="64.88"/>
<text text-anchor="middle" x="998" y="-479.46" font-family="Times,serif" font-size="14.00">rms_observation_norm</text>
<text text-anchor="middle" x="998" y="-446.21" font-family="Times,serif" font-size="14.00">~</text>
<text text-anchor="middle" x="998" y="-412.96" font-family="Times,serif" font-size="14.00">HalfNormal</text>
</g>
<!-- rms_observation -->
<g id="node11" class="node">
<title>rms_observation</title>
<polygon fill="none" stroke="black" points="1035.25,-331.01 900.75,-331.01 900.75,-239.26 1035.25,-239.26 1035.25,-331.01"/>
<text text-anchor="middle" x="968" y="-313.71" font-family="Times,serif" font-size="14.00">rms_observation</text>
<text text-anchor="middle" x="968" y="-280.46" font-family="Times,serif" font-size="14.00">~</text>
<text text-anchor="middle" x="968" y="-247.21" font-family="Times,serif" font-size="14.00">Deterministic</text>
</g>
<!-- rms_observation_norm&#45;&gt;rms_observation -->
<g id="edge10" class="edge">
<title>rms_observation_norm&#45;&gt;rms_observation</title>
<path fill="none" stroke="black" d="M968,-387.75C968,-387.75 968,-342.85 968,-342.85"/>
<polygon fill="black" stroke="black" points="971.5,-342.85 968,-332.85 964.5,-342.85 971.5,-342.85"/>
</g>
<!-- rms_observation&#45;&gt;observation -->
<g id="edge11" class="edge">
<title>rms_observation&#45;&gt;observation</title>
<path fill="none" stroke="black" d="M900.46,-285C817.03,-285 686.01,-285 686.01,-285 686.01,-285 686.01,-159.13 686.01,-159.13"/>
<polygon fill="black" stroke="black" points="689.51,-159.13 686.01,-149.13 682.51,-159.13 689.51,-159.13"/>
</g>
</g>
</svg>
