<?xml version="1.0" encoding="UTF-8" standalone="no"?>
<!DOCTYPE svg PUBLIC "-//W3C//DTD SVG 1.1//EN"
 "http://www.w3.org/Graphics/SVG/1.1/DTD/svg11.dtd">
<!-- Generated by graphviz version 11.0.0 (20240519.1550)
 -->
<!-- Pages: 1 -->
<svg width="891pt" height="540pt"
 viewBox="0.00 0.00 891.00 539.76" xmlns="http://www.w3.org/2000/svg" xmlns:xlink="http://www.w3.org/1999/xlink">
<g id="graph0" class="graph" transform="scale(1 1) rotate(0) translate(4 535.76)">
<polygon fill="white" stroke="none" points="-4,4 -4,-535.76 887,-535.76 887,4 -4,4"/>
<g id="clust1" class="cluster">
<title>clustercoeff (3)</title>
<path fill="none" stroke="black" d="M20,-187C20,-187 310,-187 310,-187 316,-187 322,-193 322,-199 322,-199 322,-346.01 322,-346.01 322,-352.01 316,-358.01 310,-358.01 310,-358.01 20,-358.01 20,-358.01 14,-358.01 8,-352.01 8,-346.01 8,-346.01 8,-199 8,-199 8,-193 14,-187 20,-187"/>
<text text-anchor="middle" x="285.12" y="-194.95" font-family="Times,serif" font-size="14.00">coeff (3)</text>
</g>
<g id="clust2" class="cluster">
<title>clustercloud (3)</title>
<path fill="none" stroke="black" d="M342,-27C342,-27 863,-27 863,-27 869,-27 875,-33 875,-39 875,-39 875,-511.76 875,-511.76 875,-517.76 869,-523.76 863,-523.76 863,-523.76 342,-523.76 342,-523.76 336,-523.76 330,-517.76 330,-511.76 330,-511.76 330,-39 330,-39 330,-33 336,-27 342,-27"/>
<text text-anchor="middle" x="835.88" y="-34.95" font-family="Times,serif" font-size="14.00">cloud (3)</text>
</g>
<g id="clust3" class="cluster">
<title>clusterobservation (501)</title>
<path fill="none" stroke="black" d="M114,-8C114,-8 310,-8 310,-8 316,-8 322,-14 322,-20 322,-20 322,-167 322,-167 322,-173 316,-179 310,-179 310,-179 114,-179 114,-179 108,-179 102,-173 102,-167 102,-167 102,-20 102,-20 102,-14 108,-8 114,-8"/>
<text text-anchor="middle" x="251" y="-15.95" font-family="Times,serif" font-size="14.00">observation (501)</text>
</g>
<!-- observation_baseline_norm -->
<g id="node1" class="node">
<title>observation_baseline_norm</title>
<ellipse fill="none" stroke="black" cx="165" cy="-285.13" rx="148.67" ry="64.88"/>
<text text-anchor="middle" x="165" y="-313.71" font-family="Times,serif" font-size="14.00">observation_baseline_norm</text>
<text text-anchor="middle" x="165" y="-280.46" font-family="Times,serif" font-size="14.00">~</text>
<text text-anchor="middle" x="165" y="-247.21" font-family="Times,serif" font-size="14.00">Normal</text>
</g>
<!-- observation_norm -->
<g id="node9" class="node">
<title>observation_norm</title>
<ellipse fill="lightgrey" stroke="black" cx="212" cy="-106.13" rx="102" ry="64.88"/>
<text text-anchor="middle" x="212" y="-134.7" font-family="Times,serif" font-size="14.00">observation_norm</text>
<text text-anchor="middle" x="212" y="-101.45" font-family="Times,serif" font-size="14.00">~</text>
<text text-anchor="middle" x="212" y="-68.2" font-family="Times,serif" font-size="14.00">Normal</text>
</g>
<!-- observation_baseline_norm&#45;&gt;observation_norm -->
<g id="edge1" class="edge">
<title>observation_baseline_norm&#45;&gt;observation_norm</title>
<path fill="none" stroke="black" d="M211.83,-223.28C211.83,-223.28 211.83,-182.85 211.83,-182.85"/>
<polygon fill="black" stroke="black" points="215.33,-182.85 211.83,-172.85 208.33,-182.85 215.33,-182.85"/>
</g>
<!-- fwhm -->
<g id="node2" class="node">
<title>fwhm</title>
<polygon fill="none" stroke="black" points="621.75,-331.01 508.25,-331.01 508.25,-239.26 621.75,-239.26 621.75,-331.01"/>
<text text-anchor="middle" x="565" y="-313.71" font-family="Times,serif" font-size="14.00">fwhm</text>
<text text-anchor="middle" x="565" y="-280.46" font-family="Times,serif" font-size="14.00">~</text>
<text text-anchor="middle" x="565" y="-247.21" font-family="Times,serif" font-size="14.00">Deterministic</text>
</g>
<!-- line_area -->
<g id="node7" class="node">
<title>line_area</title>
<polygon fill="none" stroke="black" points="687.75,-152 574.25,-152 574.25,-60.25 687.75,-60.25 687.75,-152"/>
<text text-anchor="middle" x="631" y="-134.7" font-family="Times,serif" font-size="14.00">line_area</text>
<text text-anchor="middle" x="631" y="-101.45" font-family="Times,serif" font-size="14.00">~</text>
<text text-anchor="middle" x="631" y="-68.2" font-family="Times,serif" font-size="14.00">Deterministic</text>
</g>
<!-- fwhm&#45;&gt;line_area -->
<g id="edge2" class="edge">
<title>fwhm&#45;&gt;line_area</title>
<path fill="none" stroke="black" d="M598,-239.03C598,-239.03 598,-163.89 598,-163.89"/>
<polygon fill="black" stroke="black" points="601.5,-163.89 598,-153.89 594.5,-163.89 601.5,-163.89"/>
</g>
<!-- fwhm&#45;&gt;observation_norm -->
<g id="edge3" class="edge">
<title>fwhm&#45;&gt;observation_norm</title>
<path fill="none" stroke="black" d="M541.25,-238.91C541.25,-203.62 541.25,-161 541.25,-161 541.25,-161 278.99,-161 278.99,-161"/>
<polygon fill="black" stroke="black" points="278.99,-157.5 268.99,-161 278.99,-164.5 278.99,-157.5"/>
</g>
<!-- amplitude -->
<g id="node3" class="node">
<title>amplitude</title>
<polygon fill="none" stroke="black" points="753.75,-331.01 640.25,-331.01 640.25,-239.26 753.75,-239.26 753.75,-331.01"/>
<text text-anchor="middle" x="697" y="-313.71" font-family="Times,serif" font-size="14.00">amplitude</text>
<text text-anchor="middle" x="697" y="-280.46" font-family="Times,serif" font-size="14.00">~</text>
<text text-anchor="middle" x="697" y="-247.21" font-family="Times,serif" font-size="14.00">Deterministic</text>
</g>
<!-- amplitude&#45;&gt;line_area -->
<g id="edge4" class="edge">
<title>amplitude&#45;&gt;line_area</title>
<path fill="none" stroke="black" d="M671.92,-239.03C671.92,-239.03 671.92,-163.89 671.92,-163.89"/>
<polygon fill="black" stroke="black" points="675.42,-163.89 671.92,-153.89 668.42,-163.89 675.42,-163.89"/>
</g>
<!-- amplitude&#45;&gt;observation_norm -->
<g id="edge5" class="edge">
<title>amplitude&#45;&gt;observation_norm</title>
<path fill="none" stroke="black" d="M656.08,-238.88C656.08,-201.82 656.08,-156 656.08,-156 656.08,-156 289.52,-156 289.52,-156"/>
<polygon fill="black" stroke="black" points="289.52,-152.5 279.52,-156 289.52,-159.5 289.52,-152.5"/>
</g>
<!-- velocity_norm -->
<g id="node4" class="node">
<title>velocity_norm</title>
<ellipse fill="none" stroke="black" cx="420" cy="-450.89" rx="81.85" ry="64.88"/>
<text text-anchor="middle" x="420" y="-479.46" font-family="Times,serif" font-size="14.00">velocity_norm</text>
<text text-anchor="middle" x="420" y="-446.21" font-family="Times,serif" font-size="14.00">~</text>
<text text-anchor="middle" x="420" y="-412.96" font-family="Times,serif" font-size="14.00">Normal</text>
</g>
<!-- velocity -->
<g id="node8" class="node">
<title>velocity</title>
<polygon fill="none" stroke="black" points="463.75,-331.01 350.25,-331.01 350.25,-239.26 463.75,-239.26 463.75,-331.01"/>
<text text-anchor="middle" x="407" y="-313.71" font-family="Times,serif" font-size="14.00">velocity</text>
<text text-anchor="middle" x="407" y="-280.46" font-family="Times,serif" font-size="14.00">~</text>
<text text-anchor="middle" x="407" y="-247.21" font-family="Times,serif" font-size="14.00">Deterministic</text>
</g>
<!-- velocity_norm&#45;&gt;velocity -->
<g id="edge6" class="edge">
<title>velocity_norm&#45;&gt;velocity</title>
<path fill="none" stroke="black" d="M407,-386.8C407,-386.8 407,-342.83 407,-342.83"/>
<polygon fill="black" stroke="black" points="410.5,-342.83 407,-332.83 403.5,-342.83 410.5,-342.83"/>
</g>
<!-- fwhm_norm -->
<g id="node5" class="node">
<title>fwhm_norm</title>
<ellipse fill="none" stroke="black" cx="591" cy="-450.89" rx="70.71" ry="64.88"/>
<text text-anchor="middle" x="591" y="-479.46" font-family="Times,serif" font-size="14.00">fwhm_norm</text>
<text text-anchor="middle" x="591" y="-446.21" font-family="Times,serif" font-size="14.00">~</text>
<text text-anchor="middle" x="591" y="-412.96" font-family="Times,serif" font-size="14.00">Gamma</text>
</g>
<!-- fwhm_norm&#45;&gt;fwhm -->
<g id="edge7" class="edge">
<title>fwhm_norm&#45;&gt;fwhm</title>
<path fill="none" stroke="black" d="M571.02,-388.22C571.02,-388.22 571.02,-342.86 571.02,-342.86"/>
<polygon fill="black" stroke="black" points="574.52,-342.86 571.02,-332.86 567.52,-342.86 574.52,-342.86"/>
</g>
<!-- amplitude_norm -->
<g id="node6" class="node">
<title>amplitude_norm</title>
<ellipse fill="none" stroke="black" cx="773" cy="-450.89" rx="93.51" ry="64.88"/>
<text text-anchor="middle" x="773" y="-479.46" font-family="Times,serif" font-size="14.00">amplitude_norm</text>
<text text-anchor="middle" x="773" y="-446.21" font-family="Times,serif" font-size="14.00">~</text>
<text text-anchor="middle" x="773" y="-412.96" font-family="Times,serif" font-size="14.00">HalfNormal</text>
</g>
<!-- amplitude_norm&#45;&gt;amplitude -->
<g id="edge8" class="edge">
<title>amplitude_norm&#45;&gt;amplitude</title>
<path fill="none" stroke="black" d="M716.62,-398.89C716.62,-398.89 716.62,-342.84 716.62,-342.84"/>
<polygon fill="black" stroke="black" points="720.12,-342.84 716.62,-332.84 713.12,-342.84 720.12,-342.84"/>
</g>
<!-- velocity&#45;&gt;observation_norm -->
<g id="edge9" class="edge">
<title>velocity&#45;&gt;observation_norm</title>
<path fill="none" stroke="black" d="M407,-239.07C407,-205.55 407,-166 407,-166 407,-166 264.39,-166 264.39,-166"/>
<polygon fill="black" stroke="black" points="264.39,-162.5 254.39,-166 264.39,-169.5 264.39,-162.5"/>
</g>
</g>
</svg>
