<?xml version="1.0" encoding="UTF-8" standalone="no"?>
<!DOCTYPE svg PUBLIC "-//W3C//DTD SVG 1.1//EN"
 "http://www.w3.org/Graphics/SVG/1.1/DTD/svg11.dtd">
<!-- Generated by graphviz version 11.0.0 (20240519.1550)
 -->
<!-- Pages: 1 -->
<svg width="880pt" height="668pt"
 viewBox="0.00 0.00 880.00 667.51" xmlns="http://www.w3.org/2000/svg" xmlns:xlink="http://www.w3.org/1999/xlink">
<g id="graph0" class="graph" transform="scale(1 1) rotate(0) translate(4 663.51)">
<polygon fill="white" stroke="none" points="-4,4 -4,-663.51 876,-663.51 876,4 -4,4"/>
<g id="clust1" class="cluster">
<title>clustercoeff (3)</title>
<path fill="none" stroke="black" d="M20,-187C20,-187 310,-187 310,-187 316,-187 322,-193 322,-199 322,-199 322,-346.01 322,-346.01 322,-352.01 316,-358.01 310,-358.01 310,-358.01 20,-358.01 20,-358.01 14,-358.01 8,-352.01 8,-346.01 8,-346.01 8,-199 8,-199 8,-193 14,-187 20,-187"/>
<text text-anchor="middle" x="285.12" y="-194.95" font-family="Times,serif" font-size="14.00">coeff (3)</text>
</g>
<g id="clust2" class="cluster">
<title>clustercloud (3)</title>
<path fill="none" stroke="black" d="M342,-206.01C342,-206.01 852,-206.01 852,-206.01 858,-206.01 864,-212.01 864,-218.01 864,-218.01 864,-639.51 864,-639.51 864,-645.51 858,-651.51 852,-651.51 852,-651.51 342,-651.51 342,-651.51 336,-651.51 330,-645.51 330,-639.51 330,-639.51 330,-218.01 330,-218.01 330,-212.01 336,-206.01 342,-206.01"/>
<text text-anchor="middle" x="824.88" y="-213.96" font-family="Times,serif" font-size="14.00">cloud (3)</text>
</g>
<g id="clust3" class="cluster">
<title>cluster501</title>
<path fill="none" stroke="black" d="M481,-8C481,-8 615,-8 615,-8 621,-8 627,-14 627,-20 627,-20 627,-167 627,-167 627,-173 621,-179 615,-179 615,-179 481,-179 481,-179 475,-179 469,-173 469,-167 469,-167 469,-20 469,-20 469,-14 475,-8 481,-8"/>
<text text-anchor="middle" x="605.5" y="-15.95" font-family="Times,serif" font-size="14.00">501</text>
</g>
<!-- observation_baseline_norm -->
<g id="node1" class="node">
<title>observation_baseline_norm</title>
<ellipse fill="none" stroke="black" cx="165" cy="-285.13" rx="148.67" ry="64.88"/>
<text text-anchor="middle" x="165" y="-313.71" font-family="Times,serif" font-size="14.00">observation_baseline_norm</text>
<text text-anchor="middle" x="165" y="-280.46" font-family="Times,serif" font-size="14.00">~</text>
<text text-anchor="middle" x="165" y="-247.21" font-family="Times,serif" font-size="14.00">Normal</text>
</g>
<!-- observation -->
<g id="node9" class="node">
<title>observation</title>
<ellipse fill="lightgrey" stroke="black" cx="548" cy="-106.13" rx="70.71" ry="64.88"/>
<text text-anchor="middle" x="548" y="-134.7" font-family="Times,serif" font-size="14.00">observation</text>
<text text-anchor="middle" x="548" y="-101.45" font-family="Times,serif" font-size="14.00">~</text>
<text text-anchor="middle" x="548" y="-68.2" font-family="Times,serif" font-size="14.00">Normal</text>
</g>
<!-- observation_baseline_norm&#45;&gt;observation -->
<g id="edge1" class="edge">
<title>observation_baseline_norm&#45;&gt;observation</title>
<path fill="none" stroke="black" d="M241.48,-229C341.95,-229 505.78,-229 505.78,-229 505.78,-229 505.78,-170.11 505.78,-170.11"/>
<polygon fill="black" stroke="black" points="509.28,-170.11 505.78,-160.11 502.28,-170.11 509.28,-170.11"/>
</g>
<!-- fwhm_norm -->
<g id="node2" class="node">
<title>fwhm_norm</title>
<ellipse fill="none" stroke="black" cx="603" cy="-578.64" rx="70.71" ry="64.88"/>
<text text-anchor="middle" x="603" y="-607.21" font-family="Times,serif" font-size="14.00">fwhm_norm</text>
<text text-anchor="middle" x="603" y="-573.96" font-family="Times,serif" font-size="14.00">~</text>
<text text-anchor="middle" x="603" y="-540.71" font-family="Times,serif" font-size="14.00">Gamma</text>
</g>
<!-- fwhm -->
<g id="node6" class="node">
<title>fwhm</title>
<polygon fill="none" stroke="black" points="647.75,-477.76 534.25,-477.76 534.25,-386.01 647.75,-386.01 647.75,-477.76"/>
<text text-anchor="middle" x="591" y="-460.46" font-family="Times,serif" font-size="14.00">fwhm</text>
<text text-anchor="middle" x="591" y="-427.21" font-family="Times,serif" font-size="14.00">~</text>
<text text-anchor="middle" x="591" y="-393.96" font-family="Times,serif" font-size="14.00">Deterministic</text>
</g>
<!-- fwhm_norm&#45;&gt;fwhm -->
<g id="edge2" class="edge">
<title>fwhm_norm&#45;&gt;fwhm</title>
<path fill="none" stroke="black" d="M591,-514.27C591,-514.27 591,-489.64 591,-489.64"/>
<polygon fill="black" stroke="black" points="594.5,-489.64 591,-479.64 587.5,-489.64 594.5,-489.64"/>
</g>
<!-- velocity_norm -->
<g id="node3" class="node">
<title>velocity_norm</title>
<ellipse fill="none" stroke="black" cx="774" cy="-578.64" rx="81.85" ry="64.88"/>
<text text-anchor="middle" x="774" y="-607.21" font-family="Times,serif" font-size="14.00">velocity_norm</text>
<text text-anchor="middle" x="774" y="-573.96" font-family="Times,serif" font-size="14.00">~</text>
<text text-anchor="middle" x="774" y="-540.71" font-family="Times,serif" font-size="14.00">Normal</text>
</g>
<!-- velocity -->
<g id="node7" class="node">
<title>velocity</title>
<polygon fill="none" stroke="black" points="810.75,-477.76 697.25,-477.76 697.25,-386.01 810.75,-386.01 810.75,-477.76"/>
<text text-anchor="middle" x="754" y="-460.46" font-family="Times,serif" font-size="14.00">velocity</text>
<text text-anchor="middle" x="754" y="-427.21" font-family="Times,serif" font-size="14.00">~</text>
<text text-anchor="middle" x="754" y="-393.96" font-family="Times,serif" font-size="14.00">Deterministic</text>
</g>
<!-- velocity_norm&#45;&gt;velocity -->
<g id="edge3" class="edge">
<title>velocity_norm&#45;&gt;velocity</title>
<path fill="none" stroke="black" d="M754,-515.55C754,-515.55 754,-489.59 754,-489.59"/>
<polygon fill="black" stroke="black" points="757.5,-489.59 754,-479.59 750.5,-489.59 757.5,-489.59"/>
</g>
<!-- line_area_norm -->
<g id="node4" class="node">
<title>line_area_norm</title>
<ellipse fill="none" stroke="black" cx="426" cy="-578.64" rx="88.21" ry="64.88"/>
<text text-anchor="middle" x="426" y="-607.21" font-family="Times,serif" font-size="14.00">line_area_norm</text>
<text text-anchor="middle" x="426" y="-573.96" font-family="Times,serif" font-size="14.00">~</text>
<text text-anchor="middle" x="426" y="-540.71" font-family="Times,serif" font-size="14.00">Gamma</text>
</g>
<!-- line_area -->
<g id="node8" class="node">
<title>line_area</title>
<polygon fill="none" stroke="black" points="493.75,-477.76 380.25,-477.76 380.25,-386.01 493.75,-386.01 493.75,-477.76"/>
<text text-anchor="middle" x="437" y="-460.46" font-family="Times,serif" font-size="14.00">line_area</text>
<text text-anchor="middle" x="437" y="-427.21" font-family="Times,serif" font-size="14.00">~</text>
<text text-anchor="middle" x="437" y="-393.96" font-family="Times,serif" font-size="14.00">Deterministic</text>
</g>
<!-- line_area_norm&#45;&gt;line_area -->
<g id="edge4" class="edge">
<title>line_area_norm&#45;&gt;line_area</title>
<path fill="none" stroke="black" d="M437,-513.84C437,-513.84 437,-489.36 437,-489.36"/>
<polygon fill="black" stroke="black" points="440.5,-489.36 437,-479.36 433.5,-489.36 440.5,-489.36"/>
</g>
<!-- amplitude -->
<g id="node5" class="node">
<title>amplitude</title>
<polygon fill="none" stroke="black" points="562.75,-331.01 449.25,-331.01 449.25,-239.26 562.75,-239.26 562.75,-331.01"/>
<text text-anchor="middle" x="506" y="-313.71" font-family="Times,serif" font-size="14.00">amplitude</text>
<text text-anchor="middle" x="506" y="-280.46" font-family="Times,serif" font-size="14.00">~</text>
<text text-anchor="middle" x="506" y="-247.21" font-family="Times,serif" font-size="14.00">Deterministic</text>
</g>
<!-- amplitude&#45;&gt;observation -->
<g id="edge5" class="edge">
<title>amplitude&#45;&gt;observation</title>
<path fill="none" stroke="black" d="M534.26,-239.03C534.26,-239.03 534.26,-181.46 534.26,-181.46"/>
<polygon fill="black" stroke="black" points="537.76,-181.46 534.26,-171.46 530.76,-181.46 537.76,-181.46"/>
</g>
<!-- fwhm&#45;&gt;amplitude -->
<g id="edge6" class="edge">
<title>fwhm&#45;&gt;amplitude</title>
<path fill="none" stroke="black" d="M548.5,-385.85C548.5,-385.85 548.5,-343.02 548.5,-343.02"/>
<polygon fill="black" stroke="black" points="552,-343.02 548.5,-333.02 545,-343.02 552,-343.02"/>
</g>
<!-- fwhm&#45;&gt;observation -->
<g id="edge7" class="edge">
<title>fwhm&#45;&gt;observation</title>
<path fill="none" stroke="black" d="M590.73,-385.56C590.73,-385.56 590.73,-169.73 590.73,-169.73"/>
<polygon fill="black" stroke="black" points="594.23,-169.73 590.73,-159.73 587.23,-169.73 594.23,-169.73"/>
</g>
<!-- velocity&#45;&gt;observation -->
<g id="edge8" class="edge">
<title>velocity&#45;&gt;observation</title>
<path fill="none" stroke="black" d="M754,-385.54C754,-295.57 754,-106 754,-106 754,-106 630.7,-106 630.7,-106"/>
<polygon fill="black" stroke="black" points="630.7,-102.5 620.7,-106 630.7,-109.5 630.7,-102.5"/>
</g>
<!-- line_area&#45;&gt;amplitude -->
<g id="edge9" class="edge">
<title>line_area&#45;&gt;amplitude</title>
<path fill="none" stroke="black" d="M471.5,-385.85C471.5,-385.85 471.5,-343.02 471.5,-343.02"/>
<polygon fill="black" stroke="black" points="475,-343.02 471.5,-333.02 468,-343.02 475,-343.02"/>
</g>
</g>
</svg>
